# xmcd
# 
# Track frame offsets:
#     150
#     11686
#     27785
#     44725
#     57158
#     72053
#     86095
#     100445
#     119009
#     132745
#     146269
#     160785
#     178833
#     190063
# 
# Disc length: 2684
# 
# Revision: 0
# Processed by: cddbd v1.5.2PL0 Copyright (c) Steve Scherf et al.
# Submitted via: fre:ac v1.0.31
# 
DISCID=c90a7a0e
DTITLE=Glen Campbell - Old Town Home Disc 2
DYEAR=0
DGENRE=Country
TTITLE0=Cowboy Hall Of Fame
TTITLE1=A Lady Like You
TTITLE2=Do What You Gotta Do
TTITLE3=After The Glitter Fades
TTITLE4=Scene Of The Crime
TTITLE5=A Few Good Men
TTITLE6=I Was Too Busy Loving You
TTITLE7=Goodnight Lady
TTITLE8=Tennessee
TTITLE9=Ruth
TTITLE10=A Woman's Touch
TTITLE11=Rag Doll
TTITLE12=Hang On Baby (Ease My Mind)
TTITLE13=Blues (My Naughty Sweetie Gives To Me)
EXTD=
EXTT0=
EXTT1=
EXTT2=
EXTT3=
EXTT4=
EXTT5=
EXTT6=
EXTT7=
EXTT8=
EXTT9=
EXTT10=
EXTT11=
EXTT12=
EXTT13=
PLAYORDER=
